<?xml version="1.0" encoding="UTF-8"?>
<svg width="193px" height="51px" viewBox="0 0 193 51" version="1.1" xmlns="http://www.w3.org/2000/svg" xmlns:xlink="http://www.w3.org/1999/xlink">
    <!-- Generator: Sketch 51.1 (57501) - http://www.bohemiancoding.com/sketch -->
    <title>Super You Logo Lockup</title>
    <desc>Created with Sketch.</desc>
    <defs></defs>
    <g id="Desktop_Landing" stroke="none" stroke-width="1" fill="none" fill-rule="evenodd">
        <g id="101_Desktop-Landing" transform="translate(-90.000000, -23.000000)">
            <g id="Header" transform="translate(90.000000, 23.000000)">
                <g id="Super-You-Logo-Lockup">
                    <g id="Super-You-Logo">
                        <path d="M91.2181734,21.7933531 C91.5451677,22.0825576 91.960723,22.1155371 92.4653258,21.8917841 C92.9684688,21.6695533 93.5100531,21.2814104 94.0895922,20.7298924 C94.6686446,20.1783743 95.2423444,19.5025491 95.8087452,18.7008945 C96.3756327,17.9002547 96.8851015,17.0798272 97.3386115,16.2391046 C97.6154861,15.7139701 97.8359153,15.20152 98.0003856,14.7022618 C98.1633962,14.2040182 98.2582829,13.6256092 98.2835861,12.9685569 C98.3337057,12.6017238 98.307916,12.2734513 98.2076767,11.9842468 C98.1322539,11.7214259 97.9935733,11.4662156 97.7921214,11.2155717 C97.5906696,10.9664499 97.2884918,10.7761838 96.8851015,10.644266 C96.7089528,10.5925136 96.5323175,10.5595341 96.3566553,10.5463424 C96.18002,10.5336579 95.9912197,10.5397465 95.7902545,10.5656227 C95.3863776,10.644266 94.9586574,10.828951 94.5051474,11.1176481 C94.8073252,11.1704152 95.1284803,11.3084216 95.4686128,11.5306524 C95.8087452,11.7544054 96.0165229,12.1288491 96.0924323,12.6534762 C96.1167622,13.0477076 96.0924323,13.3693842 96.0165229,13.6190133 C95.9411001,13.8691498 95.8398876,14.0660119 95.7138585,14.2101067 C95.5878295,14.354709 95.4554746,14.45314 95.3177672,14.5053997 C95.1790866,14.5581669 95.0593833,14.5840431 94.9586574,14.5840431 C94.655993,14.6373176 94.4165865,14.6895773 94.2409243,14.7418371 C93.8122309,14.9260147 93.3397436,15.326842 92.823949,15.9433042 C92.3071812,16.5607812 91.8663228,17.2432023 91.5013738,17.9920898 C91.1359382,18.7404698 90.8970183,19.4690622 90.7836408,20.1783743 C90.6702633,20.8876864 90.8147831,21.4260127 91.2181734,21.7933531 M97.9134481,8.95140547 C98.7195995,9.2752561 99.391235,9.74825532 99.9292986,10.3688387 C100.392788,10.9091112 100.74725,11.6439027 100.991738,12.5752992 C101.235755,13.5072172 101.18714,14.7155295 100.844951,16.1997145 C100.698635,16.739987 100.502761,17.306856 100.258745,17.8997999 C100.062871,18.413476 99.8004466,18.973044 99.4710006,19.5805899 C99.1410827,20.1881357 98.7318712,20.8024611 98.2433661,21.4230444 C97.6076015,22.2063353 96.9175585,22.874375 96.1727652,23.4271635 C95.427028,23.980995 94.6638273,24.3861995 93.8822191,24.6422553 C93.099667,24.8983111 92.3185308,24.9723639 91.5369227,24.8649352 C90.7543705,24.7575065 90.0341205,24.4336558 89.3742846,23.8933833 C88.7880785,23.4344645 88.378395,22.7455649 88.1466501,21.8282488 C87.9144332,20.9104113 87.853547,19.924779 87.9635197,18.8723948 C88.0734923,17.8189676 88.3604596,16.7665834 88.8244214,15.7136778 C89.2888552,14.6607721 89.9364195,13.7564935 90.7671141,13.0008421 C90.8643432,12.9466062 90.9502445,12.8861124 91.0238743,12.8183176 C91.0970321,12.7510442 91.1701898,12.6905504 91.2433476,12.6363146 C91.2433476,12.4209356 91.2740267,12.2180727 91.3353848,12.0292902 C91.395799,11.8399862 91.4632929,11.6642412 91.5369227,11.5025766 C91.6341517,11.3143156 91.7323247,11.1380491 91.8300257,10.975863 C92.4403031,10.0851434 93.099667,9.48489853 93.8090613,9.17408537 C94.5170397,8.8637937 95.1764036,8.68231219 95.787625,8.62755484 C96.4960754,8.60095841 97.2045257,8.70838712 97.9134481,8.95140547" id="o" fill="#0D294A"></path>
                        <path d="M115.434344,8.78763696 C115.751823,8.96735734 115.972525,9.19225604 116.097327,9.46183661 C116.221691,9.73191365 116.278618,10.0208564 116.267233,10.3291612 C116.25541,10.6379625 116.204613,10.9462674 116.114405,11.2550687 C116.02376,11.5633735 115.921291,11.8458622 115.808312,12.1030311 L115.535937,12.6426887 C115.468063,12.7965929 115.394495,12.9445395 115.315673,13.0855356 C115.235537,13.2270282 115.162407,13.3620667 115.094532,13.4906512 C114.754283,14.0303088 114.340466,14.7238706 113.853519,15.5723295 C113.365259,16.4202919 112.923854,17.2811625 112.527115,18.1549411 C112.130376,19.0287198 111.847492,19.850866 111.677148,20.6218764 C111.507242,21.3928867 111.558039,21.9841767 111.830414,22.3952499 C111.852309,22.4468822 111.886465,22.5109262 111.932007,22.5878783 C111.977111,22.6911431 112.022653,22.8192311 112.068194,22.9731353 C112.090527,23.2308007 112.011705,23.4621534 111.830414,23.6671935 C111.73933,23.7704583 111.637299,23.8349987 111.523883,23.859822 C111.365362,23.9620938 111.166993,23.981456 110.929212,23.9179084 C110.690994,23.8543609 110.481239,23.7704583 110.299948,23.6671935 C109.936927,23.4621534 109.642219,23.1920764 109.416262,22.8579554 C109.280075,22.7035547 109.166658,22.5243308 109.076013,22.3182978 C108.940263,22.0358091 108.826409,21.7145962 108.736201,21.3541625 C108.645117,20.9947217 108.600451,20.5707405 108.600451,20.0822188 C108.21466,20.7251411 107.817921,21.3154382 107.410235,21.8555923 C107.00211,22.3952499 106.582163,22.8450473 106.152143,23.204488 C105.992747,23.333569 105.80007,23.4492453 105.573675,23.5515172 C105.391946,23.6542854 105.176936,23.738188 104.928208,23.802232 C104.678604,23.8657796 104.40623,23.8851417 104.11196,23.859822 C103.499773,23.8086861 103.006696,23.6483279 102.633166,23.3782508 C102.25876,23.1086703 101.969745,22.8192311 101.765683,22.5109262 C101.561621,22.2026214 101.41974,21.9072246 101.34048,21.623743 C101.26122,21.3417508 101.221809,21.161534 101.221809,21.0845819 C101.131601,20.5965567 101.119778,20.0181748 101.188091,19.3494362 C101.255965,18.6821871 101.436819,17.9176308 101.731964,17.0562638 C102.026234,16.1953932 102.440051,15.2253004 102.972978,14.1459852 C103.505466,13.0661735 104.202167,11.8716784 105.063958,10.560514 C105.154166,10.4066098 105.301738,10.2015697 105.505801,9.94390426 C105.709863,9.68723178 105.941951,9.44297094 106.20294,9.21161818 C106.463491,8.98026543 106.741121,8.8069991 107.035829,8.69132272 C107.330099,8.57564634 107.636192,8.60841304 107.954109,8.78763696 C108.271587,8.96735734 108.491852,9.19225604 108.617092,9.46183661 C108.741456,9.73191365 108.798383,10.0208564 108.786997,10.3291612 C108.775174,10.6379625 108.724378,10.9462674 108.63417,11.2550687 C108.543524,11.5633735 108.441055,11.8458622 108.327639,12.1030311 L108.055702,12.6426887 C107.987827,12.7965929 107.914259,12.9445395 107.834999,13.0855356 C107.755301,13.2270282 107.682172,13.3620667 107.614297,13.4906512 C107.364255,13.9022208 107.069985,14.390246 106.730173,14.9552233 C106.389924,15.5211936 106.06106,16.1248952 105.744019,16.7668246 C105.539957,17.152578 105.34728,17.5254233 105.165989,17.8848641 C105.007031,18.2194816 104.854203,18.5660143 104.707068,18.9259515 C104.559057,19.2858887 104.451771,19.6453295 104.383897,20.0052667 C104.27048,20.4674757 104.231069,20.8150013 104.264787,21.0458576 C104.298944,21.2772104 104.372073,21.4445191 104.485928,21.5467909 C104.599344,21.6500557 104.757865,21.7011916 104.961927,21.7011916 C105.279405,21.6758719 105.698477,21.3482049 106.220018,20.7181906 C106.741121,20.0891693 107.279302,19.3494362 107.834999,18.5014738 C108.390259,17.6535113 108.911361,16.8055489 109.399184,15.9575864 C109.886131,15.1091275 110.265791,14.4418784 110.538166,13.9528602 C110.810103,13.4390188 111.116196,12.8993612 111.456008,12.3343839 C111.79582,11.7689101 112.15884,11.1771237 112.544193,10.560514 C112.634401,10.4066098 112.781974,10.2015697 112.986036,9.94390426 C113.190098,9.68723178 113.422186,9.44297094 113.683176,9.21161818 C113.943727,8.98026543 114.221357,8.8069991 114.516064,8.69132272 C114.810334,8.57564634 115.116428,8.60841304 115.434344,8.78763696" id="u" fill="#0D294A"></path>
                        <path d="M19.7288852,4.99169146 C19.8509382,4.71486498 19.881098,4.46191967 19.8203072,4.23480499 C19.7590451,4.00769031 19.7043804,3.83174954 19.6558419,3.7050332 C19.4602744,3.42771935 19.2284209,3.20742786 18.9607525,3.04318398 C18.6921417,2.87942748 18.3504876,2.83458939 17.9357901,2.91013182 C17.5206215,2.96130573 17.1860361,3.15089288 16.9301489,3.47840589 C16.6737905,3.80640627 16.5211064,4.03352095 16.472568,4.15926255 C16.3995247,4.33617806 16.3260101,4.49993457 16.2529669,4.65150681 C16.1304426,4.97950719 16.0696517,5.29483594 16.0696517,5.59749306 C16.264748,5.62283633 16.4843492,5.64817959 16.7289264,5.67303549 C16.9235514,5.69837876 17.1370264,5.71738621 17.3688799,5.73005785 C17.6002622,5.74272948 17.8264608,5.7490653 18.046062,5.7490653 C18.2892254,5.7490653 18.6002485,5.69837876 18.9786599,5.59749306 C19.3570713,5.49660735 19.606361,5.29483594 19.7288852,4.99169146 M23.5203405,2.58034013 C23.5949931,2.87106286 23.6318408,3.19391811 23.6318408,3.55043599 C23.6318408,3.90695388 23.5696303,4.30988539 23.4461665,4.75872049 C23.2978185,5.2600897 23.0614187,5.69566376 22.740317,6.06544268 C22.4177797,6.43573164 22.0713153,6.73818529 21.6999666,6.97586388 C21.3281395,7.21354247 20.9625334,7.40582751 20.6036269,7.5501688 C20.2442418,7.69553016 19.9403676,7.80773894 19.6929614,7.88679512 C18.8014376,8.07244964 17.9218774,8.1907789 17.0552378,8.24382304 C17.4265864,9.37866179 17.8477033,10.6527414 18.3181102,12.0650419 C18.7889955,13.4778524 19.1230178,14.9233054 19.3216128,16.4019111 C19.3713812,16.8512562 19.3833447,17.5367498 19.3589391,18.4609421 C19.3335763,19.3851344 19.1230178,20.4276559 18.7272636,21.5895268 C18.4047263,22.3020525 18.0209356,22.9890762 17.5754129,23.6490678 C17.1787016,24.2034812 16.6771896,24.7706455 16.0703983,25.352091 C15.4631284,25.9320064 14.7510579,26.4073635 13.9337081,26.7771425 C13.5121126,26.988809 13.1039163,27.1596724 12.7076835,27.2922827 C12.3114507,27.423873 11.8903337,27.5299613 11.4443325,27.6090175 C10.9983313,27.6885837 10.5025618,27.7406078 9.95845953,27.7676399 C9.41292162,27.793652 8.78172469,27.793652 8.06343311,27.7676399 C7.02308275,27.7140857 6.11241728,27.5631139 5.33239378,27.3116643 C4.55189174,27.0607246 3.87666894,26.7439899 3.30720393,26.3614599 C2.73726038,25.97842 2.26063252,25.556107 1.87684182,25.0945209 C1.49209403,24.6319147 1.1762563,24.163188 0.92885007,23.6883409 C0.334500875,22.5795142 0.0244056432,21.3385871 0,19.9655598 C0,19.1474558 0.0559894169,18.4017775 0.167489709,17.7280148 C0.27899,17.0552721 0.421116982,16.4411841 0.594349194,15.8867708 C0.693407394,15.6230801 0.86041856,15.2466707 1.09633978,14.7580525 C1.33130391,14.2699443 1.65958374,13.7746956 2.08117926,13.2728163 C2.50229625,12.7719572 3.02821393,12.3027205 3.6598894,11.8671464 C4.29204342,11.4315723 5.04048314,11.1347291 5.90807983,10.9761067 C6.57660304,10.8710385 7.17717328,10.8440064 7.70979056,10.8970505 C8.24288637,10.9500947 8.69463004,11.0424119 9.0664572,11.1740022 C9.51245836,11.3061025 9.88380697,11.4774759 10.1809816,11.6886324 C10.6767511,11.9798652 11.0729839,12.3491341 11.3701585,12.7974592 C11.6424489,13.1677481 11.8467864,13.6364748 11.9831708,14.2036391 C12.1190768,14.7713135 12.0884501,15.4379357 11.8903337,16.2035055 C11.7415071,16.6788627 11.5247276,17.0552721 11.2399951,17.3322238 C10.9552626,17.6096855 10.6456459,17.8213521 10.311145,17.9656933 C9.97712267,18.1110547 9.64788576,18.2033719 9.32630552,18.243155 C9.00424673,18.2824281 8.73195632,18.2895687 8.50895574,18.2630466 C8.3103608,18.2365245 8.16823382,18.1773599 8.08209625,18.0850427 C7.99452306,17.9927255 7.94571177,17.9004082 7.93326968,17.807581 C7.92034905,17.7152638 7.92034905,17.616316 7.93326968,17.5107378 C7.94571177,17.4051595 7.96389637,17.3261033 7.98878056,17.2730592 C8.21178114,16.8512562 8.38501335,16.3952805 8.50895574,15.9066623 C8.63289812,15.4185541 8.66352481,14.9758395 8.60227143,14.5795385 C8.54006097,14.1837476 8.37927085,13.8542618 8.11894399,13.5895511 C7.85861713,13.3258605 7.44372119,13.1937602 6.87377764,13.1937602 C6.50242903,13.2468043 6.15500752,13.4181777 5.83342728,13.7083904 C5.56065832,13.9725911 5.27640436,14.3882736 4.97922976,14.956458 C4.68157663,15.5241324 4.44613395,16.3621279 4.27338028,17.4704446 C3.92595877,19.7421623 4.1369958,21.4844585 4.90505575,22.6983535 C5.67263716,23.9127584 6.91110392,24.6252842 8.62045603,24.8369507 C9.88380697,24.9690511 10.9365994,24.8629628 11.7788334,24.520216 C12.6205888,24.1774691 13.3025112,23.7673971 13.8226864,23.2920399 C14.4414412,22.7381366 14.9247687,22.078655 15.2717116,21.3125751 C15.4444653,20.8902621 15.5559656,20.4608085 15.605734,20.0252344 C15.6555023,19.5896604 15.6803865,19.1806084 15.6803865,18.7975684 C15.6803865,18.4150385 15.6617234,18.0784122 15.6243971,17.7871794 C15.5870708,17.4974767 15.5559656,17.2730592 15.5315599,17.1144368 C15.3583277,16.4019111 15.1535117,15.6756143 14.9185476,14.9365665 C14.6831049,14.1970086 14.4538833,13.4380693 14.2308827,12.6592384 C14.0078821,11.8804074 13.8040232,11.1087171 13.6178704,10.3426372 C13.4321961,9.57706731 13.3025112,8.82424844 13.2283372,8.08520064 C13.0795106,8.05867856 12.930684,8.03929705 12.7818575,8.02552597 C12.6330309,8.01226493 12.4966464,7.99288342 12.3731826,7.96636134 C10.8619469,7.72868276 9.62970116,7.44510058 8.67644545,7.11510477 C7.72271119,6.78510896 7.09725677,6.54079986 6.79960363,6.38217745 C6.00665949,6.03943065 5.29458896,5.61660758 4.66339203,5.11472833 C4.03171656,4.61335912 3.64122626,3.99315062 3.49287824,3.25359278 C3.41870422,2.96338008 3.38137795,2.67316739 3.38137795,2.38193461 C3.38137795,2.11875403 3.41870422,1.84180237 3.49287824,1.55107963 C3.56705225,1.2603569 3.71587882,0.9701442 3.93840086,0.679421464 C4.01305342,0.573843207 4.21116982,0.409100323 4.5332286,0.184682772 C4.85528738,-0.0397347783 5.26348373,-0.0596263339 5.75925326,0.125008106 C5.78365891,0.125008106 5.83342728,0.15153018 5.90807983,0.204064288 C5.95736966,0.257108437 6.00665949,0.316783103 6.05642786,0.382068209 C6.10619623,0.448373395 6.15500752,0.534570136 6.20525443,0.639638353 C6.47754484,1.19405171 6.80582467,1.66940889 7.18961538,2.06519984 C7.57388462,2.46150083 7.95145428,2.79200668 8.32328143,3.0556973 C8.76880406,3.34642004 9.22724732,3.59684962 9.69813267,3.80800614 C10.5896565,4.1782951 11.8281232,4.56031497 13.4135329,4.95610593 C13.5867652,4.13851198 13.8346499,3.45148826 14.1567087,2.8970749 C14.4787675,2.34266154 14.8443736,1.89382644 15.2530485,1.55107963 C15.6617234,1.20782279 16.0823618,0.943622126 16.5163994,0.758477646 C16.94948,0.573843207 17.3524124,0.428481839 17.723761,0.322903582 C18.2439361,0.164791217 18.7641113,0.0724739971 19.284765,0.045441883 C19.7302877,0.0199398886 20.2131366,0.0525824414 20.7333118,0.144899661 C21.2539655,0.237216881 21.7487779,0.455513953 22.2201418,0.798260758 C22.3928955,0.930871129 22.6221171,1.1415176 22.9073282,1.4317303 C23.1915821,1.72245303 23.3963981,2.10498295 23.5203405,2.58034013" id="s" fill="#FFFFFF"></path>
                        <path d="M34.1408118,8.78763696 C34.4582905,8.96735734 34.6789929,9.19225604 34.8037949,9.46183661 C34.9281589,9.73191365 34.9850861,10.0208564 34.9737007,10.3291612 C34.9618773,10.6379625 34.9110808,10.9462674 34.820873,11.2550687 C34.7302274,11.5633735 34.6277584,11.8458622 34.5147798,12.1030311 L34.242405,12.6426887 C34.1745302,12.7965929 34.1009627,12.9445395 34.0221405,13.0855356 C33.9420045,13.2270282 33.8688749,13.3620667 33.8010001,13.4906512 C33.4607506,14.0303088 33.0469335,14.7238706 32.5599869,15.5723295 C32.0717266,16.4202919 31.6303218,17.2811625 31.2335829,18.1549411 C30.836844,19.0287198 30.5539596,19.850866 30.3836158,20.6218764 C30.21371,21.3928867 30.2645066,21.9841767 30.5368814,22.3952499 C30.5587765,22.4468822 30.5929328,22.5109262 30.6384746,22.5878783 C30.6835785,22.6911431 30.7291202,22.8192311 30.774662,22.9731353 C30.796995,23.2308007 30.7181727,23.4621534 30.5368814,23.6671935 C30.4457979,23.7704583 30.3437668,23.8349987 30.2303503,23.859822 C30.0718299,23.9620938 29.8734604,23.981456 29.6356799,23.9179084 C29.3974614,23.8543609 29.1877065,23.7704583 29.0064152,23.6671935 C28.6433948,23.4621534 28.348687,23.1920764 28.1227297,22.8579554 C27.9865423,22.7035547 27.8731258,22.5243308 27.7824802,22.3182978 C27.6467307,22.0358091 27.5328762,21.7145962 27.4426685,21.3541625 C27.351585,20.9947217 27.306919,20.5707405 27.306919,20.0822188 C26.9211277,20.7251411 26.5243888,21.3154382 26.1167024,21.8555923 C25.7085781,22.3952499 25.2886304,22.8450473 24.858611,23.204488 C24.6992148,23.333569 24.5065381,23.4492453 24.280143,23.5515172 C24.0984138,23.6542854 23.8834041,23.738188 23.634676,23.802232 C23.385072,23.8657796 23.1126972,23.8851417 22.8184273,23.859822 C22.2062409,23.8086861 21.7131636,23.6483279 21.3396335,23.3782508 C20.9652276,23.1086703 20.6762126,22.8192311 20.4721504,22.5109262 C20.2680883,22.2026214 20.1262081,21.9072246 20.0469479,21.623743 C19.9676877,21.3417508 19.9282766,21.161534 19.9282766,21.0845819 C19.8380689,20.5965567 19.8262455,20.0181748 19.8945582,19.3494362 C19.9624329,18.6821871 20.1432863,17.9176308 20.438432,17.0562638 C20.7327019,16.1953932 21.1465189,15.2253004 21.6794452,14.1459852 C22.2119336,13.0661735 22.9086351,11.8716784 23.7704255,10.560514 C23.8606332,10.4066098 24.008206,10.2015697 24.2122682,9.94390426 C24.4163304,9.68723178 24.6484182,9.44297094 24.9094076,9.21161818 C25.1699591,8.98026543 25.4475887,8.8069991 25.7422965,8.69132272 C26.0365664,8.57564634 26.3426596,8.60841304 26.6605762,8.78763696 C26.9780549,8.96735734 27.1983194,9.19225604 27.3235593,9.46183661 C27.4479233,9.73191365 27.5048505,10.0208564 27.4934651,10.3291612 C27.4816418,10.6379625 27.4308452,10.9462674 27.3406374,11.2550687 C27.2499918,11.5633735 27.1475228,11.8458622 27.0341063,12.1030311 L26.7621694,12.6426887 C26.6942946,12.7965929 26.6207272,12.9445395 26.541467,13.0855356 C26.4617689,13.2270282 26.3886393,13.3620667 26.3207645,13.4906512 C26.0707227,13.9022208 25.7764528,14.390246 25.4366412,14.9552233 C25.0963916,15.5211936 24.7675275,16.1248952 24.4504867,16.7668246 C24.2464245,17.152578 24.0537478,17.5254233 23.8724565,17.8848641 C23.7134983,18.2194816 23.5606706,18.5660143 23.4135356,18.9259515 C23.2655249,19.2858887 23.158239,19.6453295 23.0903642,20.0052667 C22.9769477,20.4674757 22.9375366,20.8150013 22.971255,21.0458576 C23.0054113,21.2772104 23.0785409,21.4445191 23.1923953,21.5467909 C23.3058118,21.6500557 23.4643322,21.7011916 23.6683944,21.7011916 C23.9858731,21.6758719 24.4049449,21.3482049 24.9264858,20.7181906 C25.4475887,20.0891693 25.9857698,19.3494362 26.541467,18.5014738 C27.0967262,17.6535113 27.6178292,16.8055489 28.1056516,15.9575864 C28.5925982,15.1091275 28.9722589,14.4418784 29.2446337,13.9528602 C29.5165706,13.4390188 29.8226639,12.8993612 30.1624755,12.3343839 C30.5022872,11.7689101 30.8653076,11.1771237 31.2506611,10.560514 C31.3408688,10.4066098 31.4884416,10.2015697 31.6925038,9.94390426 C31.896566,9.68723178 32.1286538,9.44297094 32.3896432,9.21161818 C32.6501947,8.98026543 32.9278243,8.8069991 33.2225321,8.69132272 C33.516802,8.57564634 33.8228952,8.60841304 34.1408118,8.78763696" id="u" fill="#FFFFFF"></path>
                        <path d="M46.6377767,9.23106725 C47.2611303,9.50543024 47.6922909,9.89889282 47.9326479,10.4100084 C48.1720786,10.9220884 48.2559025,11.5026385 48.1841196,12.1511767 C48.1354925,12.4756869 48.0637096,12.8127339 47.9683078,13.1618355 C47.8965248,13.4863457 47.7941763,13.8484663 47.6626515,14.2477151 C47.5306635,14.6469638 47.3690362,15.0843052 47.1773063,15.5582926 C46.9851134,15.9575414 46.7938466,16.3630586 46.6021168,16.7753263 C46.4099238,17.1866297 46.1825341,17.6051659 45.9185582,18.0290061 C45.7027463,18.4538107 45.385049,18.9461211 44.9659294,19.507866 C44.5458836,20.069611 44.0725795,20.6125508 43.545554,21.1362032 C43.0180653,21.66082 42.4488963,22.1285389 41.8375837,22.5408067 C41.225808,22.9525923 40.6205159,23.2086323 40.0217075,23.3079623 C39.7577316,23.3585917 39.4937557,23.3831831 39.2307061,23.3831831 C39.0144311,23.3831831 38.7865782,23.3585917 38.5471475,23.3079623 C38.3072536,23.2582973 38.0914418,23.1584851 37.900175,23.0085257 C37.6361991,22.8089013 37.4981907,22.5653981 37.4861497,22.2784983 C37.4741087,21.9920807 37.5042112,21.7606321 37.5764572,21.5860813 C37.6241581,21.4611956 37.6959411,21.3744023 37.791806,21.323773 C37.8872078,21.274108 37.9835358,21.2364976 38.0798639,21.211424 C38.1752657,21.211424 38.2952126,21.224443 38.4392416,21.2490344 C38.7509183,21.2490344 39.0806566,21.099075 39.4284564,20.7996384 C39.7757931,20.5002018 40.1055314,20.1631548 40.4167451,19.7889796 C40.7765859,19.3646572 41.1239226,18.8781331 41.4596814,18.3284427 C41.8672231,17.6548309 42.3886912,16.64369 43.0240858,15.2959842 C43.6590173,13.9482785 44.1684444,12.4009483 44.5523672,10.6535116 C44.2161453,10.7788796 43.910489,10.928839 43.6353984,11.1029076 C43.3593815,11.2774584 43.1139302,11.4399546 42.8981184,11.5899139 C42.6341425,11.7895383 42.4062896,11.9766259 42.2150229,12.1511767 C41.4476404,12.8503443 40.7103604,13.6989891 40.003646,14.697111 C39.2960054,15.6957152 38.6425493,16.7184286 38.0437409,17.7671799 C37.6361991,18.8405227 37.2823788,19.889274 36.9827431,20.9119874 C36.6831073,21.9356651 36.4311724,22.9091957 36.2274015,23.8320969 C36.0240938,24.7554802 35.8680239,25.6108756 35.760581,26.3968364 C35.652212,27.1827971 35.5864496,27.8506227 35.5628307,28.3998309 C35.5382856,28.5247167 35.5267077,28.6365835 35.5267077,28.7368779 L35.5267077,29.0363145 L35.5267077,29.335751 C35.5026257,29.9351064 35.4062976,30.3714834 35.2391129,30.6463286 C35.143248,30.8203972 35.0589609,30.958302 34.987178,31.0581142 C34.7232021,31.3821422 34.4416279,31.5634436 34.1424552,31.6010539 C33.8423563,31.6386643 33.560782,31.6198591 33.2968061,31.5446384 C32.9855925,31.4448262 32.6623378,31.28233 32.326579,31.0581142 C31.9431193,30.7827868 31.6671024,30.4274168 31.4994546,29.9910398 C31.3318067,29.5536985 31.2354787,29.0488513 31.2113967,28.4745695 C31.1882409,28.3000187 31.1882409,28.1124489 31.2113967,27.9133067 C31.2113967,27.7382737 31.2239008,27.5637229 31.2475197,27.3886899 C31.2716017,27.2141391 31.3072616,27.0265694 31.3554256,26.8274271 C31.4758357,25.9035616 31.6731229,24.9367816 31.9486767,23.9261229 C32.2246936,22.9149819 32.518772,21.9732755 32.8299856,21.099075 C33.1893633,20.1014352 33.5723599,19.1148857 33.9803647,18.1413551 C34.1475495,17.7175149 34.3517834,17.2179717 34.5916773,16.64369 C34.8311081,16.0703726 35.1006413,15.4647488 35.4007402,14.827783 C35.700376,14.1912995 36.0176102,13.5490297 36.3538321,12.8995271 C36.6891278,12.2514711 37.0369276,11.639579 37.3967684,11.0652972 C37.4440062,10.9659672 37.5162522,10.866155 37.6125802,10.7658606 C37.6843632,10.6665306 37.7617035,10.5541816 37.8459905,10.4288136 C37.9298144,10.30441 38.0312367,10.1665052 38.1516468,10.017028 C38.2715937,9.89262442 38.4216432,9.74314721 38.6008689,9.56763205 C38.7810209,9.39356343 38.9787712,9.23106725 39.1945831,9.08110786 C39.4103949,8.93114847 39.6438052,8.81349545 39.8952769,8.72525568 C40.1472118,8.63846247 40.3931262,8.60712047 40.632557,8.63171188 C41.1841276,8.75707986 41.5138659,9.08110786 41.6217718,9.60524244 C41.7292146,10.129377 41.6152882,10.6665306 41.2804556,11.2152566 C41.0160167,11.5146932 40.7881638,11.8392033 40.5968971,12.1887871 C40.7163809,12.0639013 40.8182663,11.9520345 40.9025533,11.8517401 C40.9863773,11.7524101 41.0762217,11.6521158 41.1720866,11.5518214 C41.4596814,11.2027198 41.7593172,10.8907464 42.0714571,10.6159012 C42.3345067,10.3666118 42.6466466,10.1173224 43.0060243,9.86706864 C43.3658651,9.61826142 43.7368207,9.41815484 44.1207435,9.26819546 C44.1929895,9.24360405 44.3124734,9.20020744 44.4805843,9.13752345 C44.647769,9.07532165 44.8455194,9.03144286 45.0738354,9.00588708 C45.3012251,8.98129566 45.5471395,8.98129566 45.8111154,9.00588708 C46.074165,9.03144286 46.3501819,9.10618146 46.6377767,9.23106725" id="p" fill="#FFFFFF"></path>
                        <path d="M54.5477554,12.691005 C54.2512582,13.0299556 53.9666974,13.3820008 53.6955051,13.7471408 C53.423358,14.0860914 53.1392746,14.464326 52.8427774,14.8808373 C52.5462803,15.2983559 52.2617194,15.767246 51.9900498,16.2890183 C53.027551,16.1323859 53.8864856,15.858405 54.566376,15.4675794 C55.2457889,15.0762501 55.7953351,14.6531914 56.2159696,14.1963888 C56.6361265,13.7405934 56.939308,13.3104838 57.1240816,12.9060598 C57.3098101,12.5021395 57.4396768,12.1964292 57.5136817,11.9874181 C57.6120366,11.6741532 57.6616915,11.4001724 57.6616915,11.1659792 C57.6616915,10.9312823 57.6492778,10.7227748 57.6249278,10.539953 C57.2042934,10.6185211 56.7349589,10.8275322 56.2159696,11.1659792 C55.6969802,11.5054334 55.1407497,12.0131038 54.5477554,12.691005 M59.5933795,9.30708671 C59.8147513,9.49348981 59.9995446,9.7334452 60.1468091,10.0264379 C60.2693712,10.2663933 60.3681809,10.5861622 60.4422882,10.9857445 C60.5159205,11.3858418 60.5159205,11.8523645 60.4422882,12.3853126 C60.2693712,13.3713954 59.912611,14.2514034 59.3724827,15.023792 C58.8309293,15.7972104 58.2162186,16.4506511 57.5283508,16.9830843 C56.8395328,17.5165473 56.132188,17.9367267 55.4072665,18.2425926 C54.6818699,18.5494883 54.0609837,18.7297123 53.5446077,18.7822347 C53.0030543,18.8363019 52.554135,18.829093 52.1978498,18.7621526 C51.8410897,18.6962421 51.5646124,18.5963465 51.368418,18.4624659 C51.2696083,18.7297123 51.1712736,19.009317 51.0729389,19.3023097 C50.9993066,19.5685263 50.9194987,19.8558548 50.8335152,20.1617207 C50.7465817,20.4686164 50.6914762,20.8084674 50.6672488,21.1812736 C50.6672488,21.3681917 50.6796001,21.5412067 50.7043025,21.7008337 C50.7285299,21.8347144 50.759883,21.9943413 50.7964616,22.1807444 C50.8335152,22.3676625 50.9009719,22.5406775 50.9993066,22.7003045 C51.3185381,23.3403571 51.7859842,23.6003946 52.4011699,23.4804169 C53.0154055,23.3604392 53.6305912,23.0870137 54.2453018,22.6606552 C54.9583472,22.1807444 55.7079712,21.5278186 56.4951238,20.7018778 C56.5440536,20.6751016 56.6058097,20.6354524 56.679917,20.5813852 C56.8271816,20.4753105 56.9749212,20.4217582 57.1221857,20.4217582 C57.2699253,20.4217582 57.3929624,20.4552284 57.4912971,20.5216538 C57.5891568,20.5885941 57.6756153,20.6617136 57.7497226,20.7415271 C57.8233549,20.8486316 57.8841609,20.9680944 57.9335657,21.1014601 C57.9577931,21.2353408 57.9706194,21.3681917 57.9706194,21.5010425 C57.9706194,21.6349232 57.9520926,21.7878561 57.9150389,21.9608712 C57.8784603,22.134916 57.8105286,22.3141102 57.7121939,22.5010282 C57.5891568,22.6874313 57.4480678,22.8604464 57.2884521,23.0205883 C57.1278862,23.1802152 56.9749212,23.3140959 56.8271816,23.4201706 C56.5321775,23.6338648 56.2243471,23.819753 55.9051156,23.9798949 C55.6338638,24.1137756 55.3269836,24.2600145 54.9825746,24.4196414 C54.6386407,24.5797833 54.2942317,24.685858 53.9502977,24.7394103 C53.5317815,24.8197387 53.132267,24.8727761 52.7512794,24.8995522 C52.3698168,24.9258134 51.9332487,24.9124253 51.4420503,24.8599029 C51.2202034,24.8058357 51.0178334,24.7600073 50.8335152,24.7193282 C50.648722,24.6796789 50.4582282,24.6328207 50.2615588,24.5797833 C49.5974433,24.3666041 49.0625405,24.0597084 48.6573255,23.660126 C48.2511605,23.2600287 47.9499808,22.8604464 47.7537864,22.460864 C47.5324146,22.0607667 47.3903755,21.6148411 47.3290945,21.1210273 C47.2682885,20.6282434 47.2497617,20.1354595 47.2739891,19.6421607 C47.2982165,19.1488618 47.3594975,18.6823391 47.4583072,18.2425926 C47.5566419,17.802846 47.6549767,17.4367338 47.7537864,17.1432262 C47.9252783,16.6633154 48.1224228,16.1973077 48.3437946,15.744173 C48.5651665,15.2910384 48.7366584,14.9578815 48.8601706,14.7441873 C49.2288069,14.0778734 49.6216707,13.4645969 50.040187,12.9048727 C50.4582282,12.3451484 50.8634432,11.8523645 51.2577321,11.426006 C51.7494056,10.8930579 52.3142363,10.4131471 52.9541245,9.98627372 C53.4952028,9.61346751 54.1346159,9.2870046 54.8723637,9.00688502 C55.6101115,8.72728036 56.4086653,8.60112356 57.2699253,8.62686984 C57.5649294,8.62686984 57.8475822,8.65364598 58.118359,8.70719825 C58.3639582,8.76075053 58.6162081,8.82666102 58.8746336,8.9064745 C59.132584,8.98680291 59.3724827,9.12016867 59.5933795,9.30708671" id="e" fill="#FFFFFF"></path>
                        <path d="M70.8955224,10.1047241 C70.8955224,10.6643126 70.7732323,11.2037901 70.5300631,11.7246649 C70.5056051,11.829242 70.4571594,11.9333165 70.3842557,12.0368881 C70.3348693,12.1414653 70.2741946,12.2455397 70.2012909,12.3491113 C70.1283872,12.4536885 70.0554835,12.5703323 69.9821094,12.700551 L69.434626,13.4813604 C69.2638902,13.7151507 69.0875103,13.982627 68.9050158,14.2812753 C68.7225214,14.5809291 68.5334421,14.8735441 68.3387186,15.1601258 C68.0466334,15.6282092 67.7545482,16.1234425 67.462463,16.6433118 C67.1703778,17.1641866 66.8966361,17.6845586 66.6407676,18.2049306 C66.3853694,18.7258054 66.1661879,19.2331053 65.9832231,19.727333 C65.8007287,20.2220635 65.6850234,20.6775776 65.6365777,21.0933725 C65.563674,21.6398888 65.6483364,22.0697613 65.8919759,22.3819845 C65.9408919,22.4086316 65.9888673,22.4599146 66.0382537,22.5378448 C66.1351451,22.6685662 66.1962901,22.8113543 66.2207481,22.9677173 C66.2447358,23.0456474 66.2329771,23.1371524 66.1840611,23.2407241 C66.1351451,23.3186542 66.0749407,23.4161925 66.0015666,23.5338418 C65.9286629,23.6504856 65.8063728,23.7615989 65.6365777,23.8651705 C65.4413839,23.9692449 65.2283169,23.9823171 64.9973768,23.9043869 C64.7659663,23.8264568 64.5406703,23.7228852 64.3214888,23.5921637 C64.0533913,23.461945 63.7979931,23.2930127 63.5548239,23.0843611 C63.3840881,22.9028593 63.2260517,22.6942078 63.0802443,22.4599146 C62.9339665,22.2256215 62.8116764,21.9526148 62.714785,21.6398888 C62.5924949,21.2110218 62.5318202,20.7424356 62.5318202,20.1959192 C62.5318202,19.6494029 62.6235378,19.0184204 62.8060322,18.302469 C62.9885267,17.5870203 63.2749677,16.7800665 63.6644147,15.8821106 C64.0533913,14.9841546 64.5773573,13.9886603 65.2349018,12.8956276 C65.3562512,12.6879816 65.4776006,12.4924021 65.5998907,12.3103976 C65.7217104,12.1283931 65.8430599,11.9333165 65.9648796,11.7246649 C65.7456981,11.6990233 65.526987,11.6854484 65.3078055,11.6854484 C65.088624,11.6854484 64.8572135,11.6728791 64.613574,11.646232 C64.4433085,12.47933 64.1389943,13.2470673 63.7011017,13.9494438 C63.2627387,14.6523231 62.8116764,15.2511281 62.3497961,15.7458586 C62.1056862,15.9796489 61.8441736,16.149084 61.5643174,16.2526557 C61.2839908,16.3572328 61.016834,16.4225936 60.7609655,16.4482351 C60.5055673,16.4743794 60.279801,16.4547712 60.0850775,16.3894104 C59.8898837,16.3250553 59.7567756,16.2275169 59.6838719,16.0967954 C59.5375941,15.8891494 59.5131361,15.7061393 59.6109682,15.5502791 C59.7078596,15.3939161 59.8052213,15.2903445 59.9030534,15.2380559 C60.754851,14.7438282 61.4787143,14.0861986 62.0760544,13.2666755 C62.6719835,12.4466496 63.1169313,11.6075183 63.4090165,10.748276 C63.2138227,10.5139829 63.0435572,10.2284067 62.8972795,9.88953646 C62.7510017,9.55167173 62.690327,9.13487133 62.714785,8.6406436 C62.7387727,8.01619717 62.8610628,7.57375525 63.0802443,7.31331785 C63.2989554,7.05288045 63.5059079,6.88394808 63.7011017,6.80551519 C63.7979931,6.75372938 64.0171746,6.72155179 64.3581758,6.70797686 C64.6991771,6.69540749 65.039708,6.84422886 65.3807092,7.15745763 C65.5754327,7.33946214 65.6967821,7.53504158 65.7456981,7.74268762 C65.7946142,7.9513392 65.8007287,8.15244917 65.764512,8.3480286 C65.7273546,8.54260249 65.6605654,8.73164586 65.563674,8.91365037 C65.4658419,9.09615766 65.3684802,9.25252066 65.2715888,9.38223658 C65.2222024,9.46066947 65.1737567,9.52552743 65.125311,9.57731325 C65.076395,9.62960184 65.0340638,9.67485158 64.9973768,9.71356525 C64.9611601,9.75328446 64.9301172,9.79853421 64.9056592,9.8508228 C64.7353937,10.1891903 64.66249,10.4496277 64.6869481,10.6316322 C64.8572135,10.6316322 65.027479,10.6059907 65.1982147,10.5531993 C65.3444925,10.5014135 65.5142876,10.455661 65.7094814,10.4169473 C65.9037346,10.3777309 66.1111574,10.2937675 66.3303389,10.163046 C66.4277006,10.1374045 66.536821,10.0720438 66.6591111,9.96746657 C66.7809309,9.91618353 66.9083948,9.83825342 67.0424435,9.73367624 C67.1760219,9.62960184 67.3161852,9.51245528 67.462463,9.38223658 C67.5593544,9.30430647 67.7056322,9.18715992 67.900826,9.03079693 C68.0955494,8.8749367 68.3208454,8.744718 68.5762436,8.6406436 C68.8321121,8.53707197 69.0936248,8.47774453 69.3617223,8.46467238 C69.6288792,8.45210301 69.8969767,8.53707197 70.1650742,8.71857371 C70.6518829,9.08358829 70.8955224,9.54513565 70.8955224,10.1047241 Z" id="r" fill="#FFFFFF"></path>
                        <path d="M82.6415291,30.9285419 C81.5369949,32.0136458 79.7887023,33.4321347 77.3776891,34.6860683 C74.977105,35.9400018 71.8943645,37.0112147 68.3513224,37.2922411 C64.8172872,37.5887614 60.8556598,37.0384625 57.015863,35.4121422 C55.0983348,34.596845 53.4529108,33.6372947 52.0539922,32.6387427 C51.7103067,32.3790871 51.3751541,32.1269113 51.0504305,31.8822152 C50.735662,31.6204226 50.4299004,31.3666439 50.1331458,31.1203451 C49.5557541,30.6127879 49.0888158,30.1837685 48.6626458,29.8936594 C48.451694,29.7510091 48.2497491,29.6345381 48.0634479,29.5560003 C47.8932643,29.4828052 47.7140738,29.4347208 47.5448383,29.4128157 C47.2025749,29.3684713 46.9200417,29.4363236 46.7427474,29.5378351 C46.65173,29.5880565 46.5720898,29.6633887 46.5445949,29.6890337 C46.5043008,29.7339125 46.457844,29.8092446 46.4336675,29.9011392 C46.3772556,30.0849284 46.3848404,30.2922254 46.4123353,30.4065594 C46.4232384,30.4696033 46.4398301,30.4995225 46.4502592,30.5390585 C46.4597402,30.5481411 46.4616364,30.5748547 46.4758578,30.583403 C46.477754,30.5978283 46.4924495,30.5823344 46.4843907,30.6261447 C46.4758578,30.6480498 46.4734876,30.6395014 46.4976641,30.6699549 C46.7081418,30.6384329 46.8110105,30.5657721 46.8830659,30.4931112 C46.9574916,30.4252588 47.0219623,30.3456525 47.0651007,30.2580321 C47.2381286,29.8904538 47.1333638,29.6911708 47.2954885,29.6201128 C47.3808173,29.5763026 47.4979074,29.5693571 47.6690391,29.6548404 C47.8197867,29.7515434 48.0226797,29.9759371 48.0686624,30.4060251 C48.1118009,30.8206192 47.9928146,31.4638812 47.4618797,32.0024262 C47.2011528,32.2620818 46.7508062,32.5441767 46.1620374,32.4506793 C46.0914041,32.4389254 46.0198227,32.4234315 45.9477673,32.4047321 C45.8842447,32.3833612 45.8245145,32.3582505 45.76194,32.3320712 C45.6348949,32.2845211 45.5182789,32.2022434 45.3964483,32.1205 C45.1679567,31.940985 44.9555827,31.7043031 44.8048351,31.4280851 C44.5000216,30.8761834 44.3715544,30.2174275 44.4507206,29.5057788 C44.4905407,29.1499545 44.5957795,28.7732936 44.7915618,28.4051811 C45.0020395,28.0199718 45.2585,27.736274 45.5599952,27.4958522 C46.1719924,27.0150085 46.9233601,26.8077114 47.6642986,26.8306851 C48.0378492,26.842439 48.4161403,26.9086886 48.7991719,27.0379821 C49.1670339,27.1624672 49.5116675,27.3361052 49.8430278,27.5332512 C50.5005337,27.9307486 51.0765032,28.4270862 51.6230817,28.8689281 C51.8989782,29.0826364 52.1829336,29.3027559 52.4754218,29.5292868 C52.7754948,29.7435293 53.0841007,29.9636489 53.4017135,30.1901797 C54.6892306,31.064781 56.1900697,31.9169428 57.9321997,32.6585107 C61.4207262,34.1352351 64.999322,34.7138503 68.2252253,34.5861596 C71.4615578,34.4728942 74.3499382,33.6955302 76.6808371,32.7605564 C79.0197948,31.8282539 80.8178626,30.7543696 82.0570267,29.9919652 C83.2914502,29.2156698 83.9911465,28.7674166 84.1143993,28.9335748 C84.2229565,29.077828 83.7413227,29.8274098 82.6415291,30.9285419 Z" id="smile" fill="#FFFFFF"></path>
                        <path d="M68.3234766,28.7345186 C69.9054586,28.8197806 71.3876415,28.4005367 72.7690704,27.4782001 C74.1495443,26.5558634 75.4158939,25.3843358 76.5671642,23.9650303 C75.9339894,23.9367666 75.329465,23.9650303 74.7540686,24.0502922 C74.1786722,24.1360252 73.645774,24.2490798 73.1572839,24.3913401 C72.6105379,24.5331293 72.0929199,24.7031822 71.6029973,24.9024408 C70.9129992,25.1855482 70.2946271,25.4907955 69.7469261,25.8177115 C69.2011352,26.1436854 68.7269703,26.4564697 68.3234766,26.75418 C67.9204603,27.0523613 67.6181982,27.3218079 67.4171675,27.563462 C67.2161369,27.804174 67.1144279,27.967632 67.1144279,28.052894 C67.1726838,28.3082088 67.3885171,28.4928645 67.7619279,28.6068612 C67.9347856,28.6916521 68.1219685,28.7345186 68.3234766,28.7345186 M89.7520973,2.11226272 C90.138032,2.3179881 90.4011276,2.56807606 90.5395507,2.8615516 C90.6770571,3.15551464 90.7462687,3.47824023 90.7462687,3.83070338 C90.7462687,4.18316653 90.6903494,4.54342969 90.5808026,4.91003037 C90.4703391,5.27809355 90.3456666,5.60861916 90.2077019,5.90160719 L89.8763114,6.51878333 C89.7933492,6.69477115 89.696178,6.86442147 89.5866312,7.02578426 C89.4757094,7.18763456 89.3789966,7.34168484 89.2960344,7.48793511 C89.0201048,7.98762353 88.6887144,8.6194247 88.301863,9.3828511 C87.9709309,10.0292773 87.5698705,10.8224413 87.1005153,11.762343 C86.6307017,12.7027322 86.1200946,13.7888842 85.5677771,15.0232365 C85.2084271,15.8456505 84.8486186,16.6534395 84.4906436,17.4470909 C84.186296,18.1227672 83.8544472,18.8423185 83.4960139,19.6057449 C83.1366638,20.3691713 82.791981,21.0302225 82.4601322,21.5884111 C83.178374,21.7941364 83.8961575,22.0510494 84.6148577,22.3596375 C85.3326412,22.6682256 85.9958804,23.0713888 86.6032004,23.5715647 C87.2105204,24.0707656 87.5772042,24.5914166 87.7014183,25.1359551 C87.8256324,25.6790311 87.7220443,26.1562945 87.3906538,26.5677452 C87.0863063,26.979196 86.707247,27.1849214 86.251184,27.1849214 C85.7960378,27.1849214 85.3463918,27.1108212 84.9045379,26.964571 C84.407223,26.7885831 83.8828652,26.5087576 83.3305478,26.1270444 C83.0821196,25.9798191 82.8052733,25.8477064 82.5018425,25.7302187 C82.2254546,25.6132185 81.9013978,25.4884182 81.5282971,25.355818 C81.1556547,25.2237053 80.7339684,25.08428 80.2646131,24.9375422 C79.51887,25.9354566 78.711249,26.8831583 77.8408334,27.7796725 C76.9708762,28.6756991 76.0321658,29.4323005 75.0237854,30.0489891 C74.0149467,30.6656778 72.9382715,31.1132036 71.7923847,31.3930291 C70.6469563,31.6713921 69.4245243,31.6938172 68.1260054,31.4588417 C67.4073052,31.2531164 66.7999852,30.9591533 66.3031287,30.5774401 C65.888776,30.2537395 65.5715946,29.8067012 65.3497509,29.2334001 C65.1292823,28.6610741 65.1984938,27.9337227 65.5569272,27.0528086 C65.8337735,26.3176573 66.3860909,25.5985934 67.2147962,24.8936671 C68.0425848,24.1882534 69.0445482,23.5564522 70.2174779,22.9987512 C71.392241,22.4400751 72.6760926,21.9852368 74.0713243,21.6327736 C75.4656393,21.2803105 76.8947893,21.0882351 78.3587743,21.0594726 C78.6622051,20.4135339 78.9523436,19.7890453 79.2291899,19.1869816 C79.504661,18.5854055 79.7672983,17.9906544 80.0157265,17.4022409 C79.6288752,18.0491546 79.2085639,18.5191054 78.7520426,18.8120935 C78.2968964,19.106544 77.87521,19.3122694 77.488817,19.4292696 C77.0185451,19.5472448 76.5496482,19.5906324 76.080293,19.5618698 C75.3345499,19.5028822 74.7405222,19.3195819 74.2991266,19.0109938 C73.8563559,18.7024058 73.5116732,18.3718801 73.263245,18.019417 C73.0143583,17.6669538 72.8415586,17.3291157 72.7448458,17.0054151 C72.6481329,16.683177 72.5857967,16.4769642 72.5592121,16.3887265 C72.4762499,15.831513 72.4762499,15.1699743 72.5592121,14.4060603 C72.641716,13.6426339 72.8553093,12.7690323 73.2009087,11.7842805 C73.5460498,10.8000162 74.05024,9.69143917 74.7130209,8.4575744 C75.3758018,7.22370963 76.2320084,5.85773211 77.2816407,4.35964186 C77.3921042,4.18316653 77.5717792,3.9486786 77.8202075,3.65422806 C78.0686357,3.36124002 78.3514406,3.081902 78.6695388,2.81767652 C78.9867202,2.55247603 79.3254443,2.35503817 79.6847944,2.22243792 C80.0432278,2.09032518 80.4158702,2.12737525 80.8031799,2.33261313 C81.1900313,2.5383385 81.4522102,2.79525148 81.5906333,3.10335204 C81.7285981,3.41242761 81.7973513,3.74246572 81.7973513,4.09492887 C81.7973513,4.44739202 81.7418904,4.79985517 81.6318852,5.15280582 C81.5209634,5.50575647 81.3967493,5.82848206 81.2587845,6.1224451 L80.9273941,6.73913374 C80.8444319,6.91560906 80.747719,7.08428437 80.6377139,7.24564717 C80.526792,7.40749747 80.4305376,7.56154775 80.3475754,7.70828552 C80.0986887,8.12022378 79.7947996,8.60479967 79.4363662,9.1625007 C79.0770161,9.72068922 78.7172076,10.3232403 78.3587743,10.969179 C77.9994242,11.6156052 77.6547414,12.2688564 77.3228926,12.9303951 C76.9919605,13.5914463 76.7288649,14.229585 76.5358976,14.8472487 C76.3979328,15.2582119 76.3149706,15.6257876 76.2874693,15.9480257 C76.2595097,16.2424762 76.3007616,16.5067017 76.4116835,16.7411896 C76.5216886,16.9766526 76.7701168,17.0941403 77.1574266,17.0941403 C77.51586,17.0648902 77.9375463,16.8294273 78.4211105,16.3887265 C78.903758,15.9480257 79.3951143,15.4049497 79.8919708,14.759011 C80.3892856,14.1125848 80.8861421,13.3998585 81.383457,12.6213196 C81.8807719,11.8432681 82.3363764,11.1012918 82.7507291,10.3963655 C83.1646234,9.69143917 83.5170982,9.07426303 83.8067783,8.54581206 C84.0973752,8.01687359 84.2834672,7.66441044 84.3659711,7.48793511 C84.6419006,6.90098403 84.9320392,6.32817048 85.2359283,5.76998195 C85.5398175,5.21179342 85.8987092,4.63946737 86.3139786,4.05105379 C86.4235254,3.87506596 86.5963251,3.64009053 86.8310027,3.34612749 C87.0656803,3.05265195 87.3425266,2.78111395 87.6601664,2.53102599 C87.9768895,2.28142553 88.30828,2.09763769 88.6543378,1.98014998 C88.9994789,1.86314976 89.3652459,1.90702484 89.7520973,2.11226272" id="y" fill="#0D294A"></path>
                        <path d="M117.21393,22.0380836 C117.21393,23.0964075 116.367341,23.9544387 115.32313,23.9544387 C114.27892,23.9544387 113.432836,23.0964075 113.432836,22.0380836 C113.432836,20.9797598 114.27892,20.1217285 115.32313,20.1217285 C116.367341,20.1217285 117.21393,20.9797598 117.21393,22.0380836" id="Dots" fill="#FFFFFF"></path>
                    </g>
                    <path d="M102.089552,42.6587596 C102.089552,43.2826538 102.03151,43.8554446 101.915423,44.3771492 C101.799336,44.8988539 101.630736,45.3506325 101.409619,45.7324988 C101.188501,46.1143651 100.917636,46.4128617 100.597015,46.6279977 C100.276394,46.8431336 99.9060275,46.9506999 99.4859038,46.9506999 C98.9220536,46.9506999 98.4853526,46.7920396 98.1757877,46.4747141 C97.8662229,46.1573886 97.6451085,45.7513256 97.5124378,45.256513 L97.4792703,45.256513 L97.4792703,46.6925381 L96.4179104,46.6925381 L96.4179104,34.4943918 L97.5124378,34.4943918 L97.5124378,40.0610062 L97.5290216,40.0610062 C97.6616922,39.5769503 97.8966263,39.1843332 98.2338308,38.8831428 C98.5710354,38.5819525 98.9883889,38.4313597 99.4859038,38.4313597 C99.9060275,38.4313597 100.279158,38.5362368 100.605307,38.7459944 C100.931455,38.9557519 101.205085,39.2461811 101.426202,39.6172905 C101.64732,39.9884 101.813156,40.4321112 101.923715,40.9484375 C102.034274,41.4647637 102.089552,42.0348654 102.089552,42.6587596 Z M101.144279,42.6470211 C101.144279,42.1814636 101.108269,41.7429799 101.036247,41.331557 C100.964226,40.9201341 100.850194,40.5628511 100.694148,40.2596974 C100.538102,39.9565437 100.343048,39.718355 100.108979,39.5451243 C99.87491,39.3718936 99.595832,39.2852795 99.2717366,39.2852795 C98.9596447,39.2852795 98.6835675,39.3718936 98.4434968,39.5451243 C98.2034261,39.718355 98.0023699,39.9565437 97.8403222,40.2596974 C97.6782745,40.5628511 97.5582409,40.9201341 97.480218,41.331557 C97.402195,41.7429799 97.3631841,42.1814636 97.3631841,42.6470211 C97.3631841,43.1234056 97.402195,43.5645959 97.480218,43.9706054 C97.5582409,44.3766148 97.6782745,44.7284844 97.8403222,45.0262247 C98.0023699,45.323965 98.2004253,45.5594469 98.4344942,45.7326776 C98.6685631,45.9059083 98.9476411,45.9925224 99.2717366,45.9925224 C99.595832,45.9925224 99.87491,45.9059083 100.108979,45.7326776 C100.343048,45.5594469 100.538102,45.323965 100.694148,45.0262247 C100.850194,44.7284844 100.964226,44.3766148 101.036247,43.9706054 C101.108269,43.5645959 101.144279,43.1234056 101.144279,42.6470211 Z M106.111816,48.4986254 C106.02311,48.8596796 105.920544,49.1812387 105.804117,49.4633123 C105.68769,49.7453859 105.546316,49.9823241 105.379992,50.1741342 C105.213667,50.3659442 105.022396,50.515441 104.806174,50.622629 C104.589952,50.729817 104.332153,50.7834101 104.032769,50.7834101 C103.877532,50.7834101 103.722298,50.7693067 103.567062,50.7410993 C103.411826,50.7128919 103.284312,50.6818643 103.184517,50.6480155 L103.334209,49.6494799 C103.411827,49.6720458 103.506076,49.6946114 103.616959,49.7171772 C103.727842,49.7397431 103.838724,49.7510259 103.949607,49.7510259 C104.271168,49.7510259 104.512335,49.6381982 104.673115,49.4125393 C104.833896,49.1868804 104.964182,48.8766041 105.063976,48.481701 L105.429889,47.0262085 L103.034826,38.327102 L104.199093,38.327102 L105.978757,45.418397 L106.012022,45.418397 L107.592098,38.327102 L108.706468,38.327102 L106.111816,48.4986254 Z" id="by" fill="#0D294A"></path>
                    <g id="Group-3" transform="translate(112.000000, 33.000000)">
                        <polygon id="Fill-1" fill="#0D294A" points="34.256917 3.64843636 38.0643972 3.64843636 38.0643972 0.327272727"></polygon>
                        <polygon id="Fill-2" fill="#0D294A" points="35.8577075 13.7544545 37.9877194 13.7544545 37.9877194 4.41818182 35.8577075 4.41818182"></polygon>
                        <g id="Group-25">
                            <path d="M34.1012721,13.8036273 L34.1012721,4.46653636 L31.9702998,4.46653636 L31.9702998,8.50720909 C31.9702998,9.76279091 31.3559164,11.9794091 29.8215587,11.9794091 C29.6116951,11.9794091 29.3627721,11.9594455 29.2078156,11.8036636 C28.8431555,11.4495545 28.8820547,10.2541909 28.8820547,9.80222727 L28.8820547,4.46653636 L26.752203,4.46653636 L26.752203,10.9388455 C26.752203,12.5475545 27.4818433,14.0199545 29.2270251,14.0199545 C30.5113393,14.0199545 31.4526042,13.2345 31.9325211,12.0574636 L31.9702998,12.0574636 L31.9702998,13.8036273 L34.1012721,13.8036273 Z" id="Fill-3" fill="#0D294A"></path>
                            <path d="M23.2163609,9.13408364 C23.2163609,10.2152291 23.0823747,12.33252 21.6061257,12.33252 C20.0701672,12.33252 20.0309478,10.2728291 20.0309478,9.13408364 C20.0309478,8.05670182 20.1279557,5.93875636 21.6061257,5.93875636 C22.9674379,5.93875636 23.2163609,8.11724727 23.2163609,9.13408364 Z M25.3471731,16.1445927 L25.3471731,4.46668364 L23.2163609,4.46668364 L23.2163609,5.76252 L23.1773016,5.76252 C22.8525012,4.93942909 21.7389913,4.25232 20.8947344,4.25232 C18.2298984,4.25232 17.7682304,6.97768364 17.7682304,9.13408364 C17.7682304,11.1944291 18.3629241,14.0194473 20.8947344,14.0194473 C21.8729775,14.0194473 22.6994656,13.5481745 23.1773016,12.6851564 L23.2163609,12.6851564 L23.2200427,18.0000655 L25.3471731,16.1445927 Z" id="Fill-5" fill="#0D294A"></path>
                            <path d="M14.9590832,7.25265818 L11.6219152,7.25265818 C11.7178026,6.31109455 12.4264725,5.64394909 13.3478875,5.64394909 C14.3254903,5.64394909 14.9590832,6.25234909 14.9590832,7.25265818 Z M16.9749587,8.56682182 L16.9749587,8.03713091 C16.9749587,5.76291273 15.8217492,4.25287636 13.5018836,4.25287636 C10.7773381,4.25287636 9.58699032,5.99887636 9.58699032,8.64569455 C9.58699032,11.7241855 10.949103,14.0193491 14.1924646,14.0193491 C15.055931,14.0193491 15.918597,13.9210036 16.7431642,13.64544 L16.7431642,12.1367127 C16.2064192,12.3324218 15.5737868,12.4908218 14.9979824,12.4908218 C12.9251188,12.4908218 11.562846,10.5479673 11.562846,8.56682182 L16.9749587,8.56682182 Z" id="Fill-8" fill="#0D294A"></path>
                            <polygon id="Clip-11" points="0 0.0522 8.89991812 0.0522 8.89991812 14.028116 0 14.028116"></polygon>
                            <path d="M8.89921067,10.0970345 C8.82973636,6.01741636 2.51237668,5.77752545 2.472517,3.38516182 C2.45074625,2.18832545 3.3825664,1.70183455 4.43796759,1.68334364 C5.66641423,1.66108909 6.65154071,2.05512545 7.77161383,2.48630727 L7.76873241,0.37818 C6.69043992,0.180507273 5.58093202,0.0345436364 4.48647154,0.0538527273 C2.29963162,0.0926345455 -0.0429652174,1.01816182 0.000576284585,3.62456182 C0.0662086957,7.46772545 6.37892609,7.53416182 6.43015138,10.4747073 C6.45480356,11.84598 5.33008814,12.3761618 4.14070079,12.3982527 C2.72336087,12.4257436 1.55670474,11.8731436 0.372119763,11.1472527 L0.372119763,13.50738 C1.58519881,13.7994709 2.82677194,14.0499982 4.09331739,14.0265982 C6.51003083,13.9827436 8.94755455,12.9395618 8.89921067,10.0970345" id="Fill-10" fill="#0D294A"></path>
                            <path d="M45.4590729,11.1184855 C45.3671875,8.45284909 41.3392785,7.96734 41.2973377,6.73499455 C41.2774879,6.10564909 42.2065868,5.83810364 42.6863437,5.82108545 C43.414063,5.79441273 44.0817528,6.05426727 44.7257508,6.36452182 L44.7257508,4.54324909 C44.0305275,4.37224909 43.3037686,4.22939455 42.5942982,4.25295818 C40.8878555,4.31595818 39.3434128,5.17504909 39.4096856,7.11364909 C39.4934069,9.58423091 43.4566441,10.3639582 43.4939425,11.4624491 C43.5195551,12.2089582 42.4868852,12.3424855 41.94998,12.3621218 C41.1444623,12.3907582 40.3855275,12.1984855 39.6472429,11.8916673 L39.6472429,13.7512309 C40.4425156,13.9778673 41.2794089,14.0731036 42.1049366,14.0449582 C43.8870966,13.9799945 45.5295077,13.1955218 45.4590729,11.1184855" id="Fill-13" fill="#0D294A"></path>
                            <path d="M55.7596156,6.12677455 C55.7596156,6.12677455 56.3408626,4.76466545 58.008086,4.76466545 C58.008086,4.76466545 60.5583053,4.56192 60.5583053,7.94526545 L60.5583053,13.6925018 L59.4430346,13.6925018 L59.4430346,7.97193818 C59.4430346,7.97193818 59.6061551,5.71342909 57.8041453,5.66695636 C57.8041453,5.66695636 55.8691097,5.64355636 55.8801551,7.89895636 L55.879835,13.6925018 L54.7668053,13.6925018 L54.7668053,4.87315636 L55.7596156,4.87315636 L55.7596156,6.12677455 Z" id="Fill-15" fill="#0D294A"></path>
                            <path d="M68.4415103,6.12677455 C68.4415103,6.12677455 69.0227573,4.76466545 70.6899806,4.76466545 C70.6899806,4.76466545 73.2402,4.56192 73.2402,7.94526545 L73.2402,13.6925018 L72.1249292,13.6925018 L72.1249292,7.97193818 C72.1249292,7.97193818 72.2880498,5.71342909 70.4860399,5.66695636 C70.4860399,5.66695636 68.5510043,5.64355636 68.5620498,7.89895636 L68.5617296,13.6925018 L67.4487,13.6925018 L67.4487,4.87315636 L68.4415103,4.87315636 L68.4415103,6.12677455 Z" id="Fill-17" fill="#0D294A"></path>
                            <polygon id="Fill-19" fill="#0D294A" points="62.1303617 13.6926 63.2773281 13.6926 63.2773281 0.63 62.1303617 0.63"></polygon>
                            <path d="M79.8707383,7.56945818 L75.9867403,7.56945818 C76.0741435,6.35642182 76.723264,5.51058545 77.9822858,5.51058545 C79.2429083,5.51058545 79.8707383,6.33842182 79.8707383,7.56945818 Z M80.9692008,8.28814909 C80.9692008,6.39274909 80.1761692,4.79369455 78.1261968,4.79369455 C75.5537265,4.79369455 74.8159221,6.87285818 74.8159221,9.15165818 C74.8159221,12.0213491 76.0035486,13.9529127 79.0090328,13.9529127 C79.618934,13.9529127 80.2152285,13.8987491 80.8057601,13.7495127 L80.8057601,12.9761673 C80.3024715,13.1604218 79.7798134,13.1985491 79.260517,13.1985491 C78.8108549,13.1985491 78.3610328,13.0877673 77.9467482,12.9030218 C76.2910506,12.0943309 75.9135842,9.98194909 75.9135842,8.28814909 L80.9692008,8.28814909 Z" id="Fill-21" fill="#0D294A"></path>
                            <polygon id="Fill-22" fill="#0D294A" points="64.8558676 13.6927636 65.8730099 13.6927636 65.8730099 4.68049091 64.8558676 4.68049091"></polygon>
                            <polygon id="Fill-23" fill="#0D294A" points="64.8531462 2.09896364 65.8728498 2.09896364 65.8728498 0.63 64.8531462 0.63"></polygon>
                            <path d="M50.0707103,13.0591145 C51.7715502,13.0591145 52.0901075,10.9522964 52.0901075,9.37255091 C52.0901075,8.04300545 51.9441154,5.62626 50.1153723,5.62626 C48.3924415,5.62626 48.1406372,7.86873273 48.1406372,9.43211455 C48.1406372,10.9676782 48.5032162,13.0591145 50.0707103,13.0591145 Z M50.0470186,13.9203327 C48.3521016,13.9203327 47.0397735,12.1510964 47.0397735,9.41575091 C47.0397735,6.42480545 48.5161826,4.76504182 50.1425858,4.76504182 C51.9607636,4.76504182 53.1909711,6.58909636 53.1909711,9.26978727 C53.1909711,12.5160055 51.5095008,13.9203327 50.0607854,13.9203327 L50.0470186,13.9203327 Z" id="Fill-24" fill="#0D294A"></path>
                        </g>
                    </g>
                </g>
            </g>
        </g>
    </g>
</svg>